HIERARCHY
ROOT Hips
{
    OFFSET 0.000000 0.000000 0.000000
    CHANNELS 6 Xposition Yposition Zposition Zrotation Xrotation Yrotation
    JOINT Spine
    {
        OFFSET -0.000000 7.236184 0.000000
        CHANNELS 3 Zrotation Xrotation Yrotation
        JOINT Spine1
        {
            OFFSET -0.000000 20.420147 0.000000
            CHANNELS 3 Zrotation Xrotation Yrotation
            JOINT Neck
            {
                OFFSET -0.000000 20.336288 1.848754
                CHANNELS 3 Zrotation Xrotation Yrotation
                JOINT Head
                {
                    OFFSET -0.000000 12.354461 -1.764923
                    CHANNELS 3 Zrotation Xrotation Yrotation
                    End Site
                    {
                        OFFSET -0.000000 22.061537 0.000000
                    }
                }
            }
            JOINT LeftShoulder
            {
                OFFSET 3.573296 18.396038 -0.314103
                CHANNELS 3 Zrotation Xrotation Yrotation
                JOINT LeftArm
                {
                    OFFSET 10.880760 0.000000 0.000000
                    CHANNELS 3 Zrotation Xrotation Yrotation
                    JOINT LeftForeArm
                    {
                        OFFSET 27.185530 0.000000 0.000000
                        CHANNELS 3 Zrotation Xrotation Yrotation
                        JOINT LeftHand
                        {
                            OFFSET 27.825975 0.000000 0.000000
                            CHANNELS 3 Zrotation Xrotation Yrotation
                            End Site
                            {
                                OFFSET 13.236923 0.000000 0.000000
                            }
                        }
                    }
                }
            }
            JOINT RightShoulder
            {
                OFFSET -3.474926 18.396038 -0.314103
                CHANNELS 3 Zrotation Xrotation Yrotation
                JOINT RightArm
                {
                    OFFSET -10.880760 0.000000 0.000000
                    CHANNELS 3 Zrotation Xrotation Yrotation
                    JOINT RightForeArm
                    {
                        OFFSET -27.185530 0.000000 0.000000
                        CHANNELS 3 Zrotation Xrotation Yrotation
                        JOINT RightHand
                        {
                            OFFSET -27.825975 0.000000 0.000000
                            CHANNELS 3 Zrotation Xrotation Yrotation
                            End Site
                            {
                                OFFSET -13.236923 0.000000 0.000000
                            }
                        }
                    }
                }
            }
        }
    }
    JOINT LeftUpLeg
    {
        OFFSET 8.824615 0.000000 0.000000
        CHANNELS 3 Zrotation Xrotation Yrotation
        JOINT LeftLeg
        {
            OFFSET -0.000000 -35.111282 0.000000
            CHANNELS 3 Zrotation Xrotation Yrotation
            JOINT LeftFoot
            {
                OFFSET -0.000000 -42.324711 0.000000
                CHANNELS 3 Zrotation Xrotation Yrotation
                JOINT LeftToeBase
                {
                    OFFSET -0.000000 -5.735999 13.236923
                    CHANNELS 3 Zrotation Xrotation Yrotation
                    End Site
                    {
                        OFFSET -0.000000 0.000000 3.529846
                    }
                }
            }
        }
    }
    JOINT RightUpLeg
    {
        OFFSET -8.824615 0.000000 0.000000
        CHANNELS 3 Zrotation Xrotation Yrotation
        JOINT RightLeg
        {
            OFFSET -0.000000 -35.111282 0.000000
            CHANNELS 3 Zrotation Xrotation Yrotation
            JOINT RightFoot
            {
                OFFSET -0.000000 -42.324711 0.000000
                CHANNELS 3 Zrotation Xrotation Yrotation
                JOINT RightToeBase
                {
                    OFFSET -0.000000 -5.735999 13.236923
                    CHANNELS 3 Zrotation Xrotation Yrotation
                    End Site
                    {
                        OFFSET -0.000000 0.000000 3.529846
                    }
                }
            }
        }
    }
}
MOTION
Frames:    6
Frame Time:    0.008333
-1.850567    81.311836    103.648499    -2.048628    -6.806502    -175.419754    0.568520    -10.690535    -0.721040    1.339569    10.516589    -0.897655    1.985326    6.151274    2.241267    -8.005701    -19.498953    -0.316692    2.908996    13.683033    -2.543823    -42.110126    20.224142    -33.770992    29.986990    -9.371466    -59.640343    12.072221    8.421230    1.276822    0.206623    14.352876    -3.841371    33.571377    23.074074    33.695114    -33.254421    -19.664925    72.586166    -10.452358    5.753956    -3.054287    4.825626    -14.238752    -0.975310    0.123118    16.735285    -0.449415    -7.823137    -7.248975    -11.281113    -0.748134    -1.124937    0.830976    -5.629414    -11.585868    0.760731    2.701198    15.611005    6.221977    -1.266302    -8.043026    -14.850257    -2.165407    -0.297760    2.342968    
-1.755544    81.306770    103.578857    -2.119934    -6.882778    -175.423096    0.659614    -10.688562    -0.769042    1.393481    10.493588    -0.958782    1.965016    6.090563    2.446151    -8.444017    -19.535641    -0.240514    2.804375    14.044518    -1.956366    -42.835781    20.338379    -32.369743    30.079556    -9.699691    -60.652035    11.880944    8.541421    1.528977    0.232238    14.617537    -4.362139    34.181705    23.303463    32.347542    -33.389317    -20.158297    73.782722    -10.432566    5.947824    -3.283120    4.818155    -14.234359    -0.966921    0.120598    16.682255    -0.494566    -7.798294    -7.259080    -11.230747    -0.762483    -1.135560    0.846930    -5.632514    -11.646022    0.790734    2.712972    15.683934    6.228353    -1.350958    -8.115961    -14.896369    -2.160677    -0.294912    2.337842    
-1.663860    81.301109    103.507996    -2.192419    -6.954993    -175.421539    0.744855    -10.679532    -0.817461    1.447614    10.465669    -1.019675    1.951166    6.030855    2.645914    -8.873300    -19.569157    -0.167488    2.703369    14.400039    -1.373670    -43.591816    20.469744    -30.957392    30.171488    -10.017296    -61.620094    11.669137    8.661458    1.786475    0.254546    14.884022    -4.886245    34.841049    23.522734    30.978098    -33.515480    -20.634056    74.930977    -10.409284    6.142584    -3.510199    4.805958    -14.229381    -0.962686    0.118879    16.635973    -0.547660    -7.767052    -7.274077    -11.174709    -0.776860    -1.145483    0.862915    -5.639344    -11.703966    0.819976    2.726523    15.764451    6.229907    -1.435179    -8.191616    -14.942919    -2.155072    -0.295530    2.331779    
-1.575343    81.295036    103.436043    -2.265264    -7.023737    -175.414932    0.825158    -10.664107    -0.866149    1.502005    10.432812    -1.080367    1.943945    5.972369    2.840739    -9.294616    -19.600523    -0.097849    2.606220    14.748330    -0.796320    -44.386486    20.613842    -29.529350    30.265873    -10.324348    -62.548836    11.435341    8.784272    2.050821    0.273747    15.150906    -5.412705    35.552658    23.728903    29.582630    -33.631142    -21.091566    76.036743    -10.381229    6.338997    -3.735535    4.790037    -14.224667    -0.962505    0.117869    16.596134    -0.603383    -7.732598    -7.292486    -11.118672    -0.790981    -1.155625    0.878616    -5.648976    -11.759888    0.848429    2.741944    15.851721    6.227985    -1.519183    -8.269820    -14.991367    -2.148539    -0.299449    2.324723    
-1.490297    81.288681    103.363731    -2.337431    -7.090123    -175.403366    0.900593    -10.643586    -0.914754    1.557020    10.394737    -1.140326    1.942418    5.916120    3.029592    -9.706074    -19.631300    -0.032092    2.513096    15.086946    -0.227786    -45.222214    20.765400    -28.089954    30.364902    -10.620272    -63.436806    11.181115    8.910898    2.321247    0.289064    15.415324    -5.937170    36.316456    23.916634    28.163975    -33.733418    -21.526987    77.100838    -10.348309    6.537427    -3.957684    4.771338    -14.222217    -0.965938    0.117336    16.562962    -0.657505    -7.698013    -7.312936    -11.067340    -0.804720    -1.166209    0.893895    -5.660801    -11.814954    0.875496    2.759285    15.945096    6.224474    -1.602556    -8.350208    -15.043014    -2.141134    -0.306402    2.316734    
-1.407806    81.281975    103.290817    -2.409180    -7.156794    -175.386978    0.972454    -10.619505    -0.963287    1.612624    10.350858    -1.199748    1.947461    5.861625    3.214445    -10.113088    -19.662952    0.029944    2.423244    15.418339    0.337405    -46.113598    20.919567    -26.623899    30.470760    -10.907598    -64.295448    10.903982    9.044340    2.600250    0.301909    15.677611    -6.462922    37.141762    24.084291    26.704134    -33.822033    -21.943972    78.138161    -10.309322    6.740157    -4.178153    4.750339    -14.224708    -0.972085    0.117233    16.536785    -0.709207    -7.665407    -7.335121    -11.022297    -0.817994    -1.177353    0.908658    -5.674738    -11.871744    0.901234    2.779038    16.045038    6.220400    -1.685700    -8.433426    -15.099123    -2.132812    -0.316547    2.307761    
